{
    "asset" : {
        "generator" : "Khronos glTF Blender I/O v1.7.33",
        "version" : "2.0"
    },
    "scene" : 0,
    "scenes" : [
        {
            "name" : "Scene",
            "nodes" : [
                0,
                1
            ]
        }
    ],
    "nodes" : [
        {
            "mesh" : 0,
            "name" : "macintosh-se",
            "scale" : [
                0.07684862613677979,
                0.07684862613677979,
                0.07684862613677979
            ],
            "translation" : [
                -9.430102348327637,
                0,
                5.641366481781006
            ]
        },
        {
            "mesh" : 1,
            "name" : "screen",
            "scale" : [
                0.07684862613677979,
                0.07684862613677979,
                0.07684862613677979
            ],
            "translation" : [
                -9.4201021194458,
                0,
                5.641366481781006
            ]
        }
    ],
    "meshes" : [
        {
            "name" : "macintosh-se",
            "primitives" : [
                {
                    "attributes" : {
                        "POSITION" : 0,
                        "NORMAL" : 1
                    },
                    "indices" : 2
                }
            ]
        },
        {
            "name" : "screen",
            "primitives" : [
                {
                    "attributes" : {
                        "POSITION" : 3,
                        "NORMAL" : 4
                    },
                    "indices" : 5
                }
            ]
        }
    ],
    "accessors" : [
        {
            "bufferView" : 0,
            "componentType" : 5126,
            "count" : 36245,
            "max" : [
                247.5,
                336.94451904296875,
                58.41029357910156
            ],
            "min" : [
                2.5,
                0,
                -216.28269958496094
            ],
            "type" : "VEC3"
        },
        {
            "bufferView" : 1,
            "componentType" : 5126,
            "count" : 36245,
            "type" : "VEC3"
        },
        {
            "bufferView" : 2,
            "componentType" : 5123,
            "count" : 39066,
            "type" : "SCALAR"
        },
        {
            "bufferView" : 3,
            "componentType" : 5126,
            "count" : 492,
            "max" : [
                217.60812377929688,
                303.2307434082031,
                39.45391845703125
            ],
            "min" : [
                32.391868591308594,
                153.75198364257812,
                22.572525024414062
            ],
            "type" : "VEC3"
        },
        {
            "bufferView" : 4,
            "componentType" : 5126,
            "count" : 492,
            "type" : "VEC3"
        },
        {
            "bufferView" : 5,
            "componentType" : 5123,
            "count" : 492,
            "type" : "SCALAR"
        }
    ],
    "bufferViews" : [
        {
            "buffer" : 0,
            "byteLength" : 434940,
            "byteOffset" : 0
        },
        {
            "buffer" : 0,
            "byteLength" : 434940,
            "byteOffset" : 434940
        },
        {
            "buffer" : 0,
            "byteLength" : 78132,
            "byteOffset" : 869880
        },
        {
            "buffer" : 0,
            "byteLength" : 5904,
            "byteOffset" : 948012
        },
        {
            "buffer" : 0,
            "byteLength" : 5904,
            "byteOffset" : 953916
        },
        {
            "buffer" : 0,
            "byteLength" : 984,
            "byteOffset" : 959820
        }
    ],
    "buffers" : [
        {
            "byteLength" : 960804,
            "uri" : "data:application/octet-stream;base64,"
        }
    ]
}
